<svg width="32" height="21" viewBox="0 0 32 21" fill="none" xmlns="http://www.w3.org/2000/svg">
<path d="M20.7339 5C20.7339 7.76142 18.5675 9.99999 15.8952 9.99999C13.2228 9.99999 11.0565 7.76142 11.0565 5C11.0565 2.23857 13.2228 0 15.8952 0C18.5675 0 20.7339 2.23857 20.7339 5Z" fill="white"/>
<path d="M7.1853 15.026C7.1853 12.8025 8.92967 11 11.0815 11H12.024L13.9595 19H17.8305L19.7659 11H20.7085C22.8603 11 24.6047 12.8025 24.6047 15.026V20.8985H7.1853V15.026Z" fill="white"/>
<path d="M14.4435 11H17.3468L16.8629 12.5H14.9274L14.4435 11Z" fill="white"/>
<path d="M16.8629 13.4042H14.9274L14.4435 19H17.3468L16.8629 13.4042Z" fill="white"/>
</svg>
