<svg width="565" height="515" viewBox="0 0 565 515" fill="none" xmlns="http://www.w3.org/2000/svg">
<g filter="url(#filter0_f)">
<path d="M11.3599 157.355L79.0913 118.25L146.823 157.355V235.565L79.0913 274.669L11.3599 235.565V157.355Z" stroke="#FFE7A3"/>
<path d="M146.616 157.355L214.348 118.25L282.079 157.355V235.565L214.348 274.669L146.616 235.565V157.355Z" stroke="#FFE7A3"/>
<path d="M214.921 39.6821L282.652 0.57735L350.384 39.6821V117.892L282.652 156.996L214.921 117.892V39.6821Z" stroke="#FFE7A3"/>
<path d="M282.549 157.355L350.28 118.25L418.012 157.355V235.565L350.28 274.669L282.549 235.565V157.355Z" stroke="#FFE7A3"/>
<path d="M418.482 157.355L486.213 118.25L553.945 157.355V235.565L486.213 274.669L418.482 235.565V157.355Z" stroke="#FFE7A3"/>
<path d="M350.854 39.6821L418.585 0.57735L486.316 39.6821V117.892L418.585 156.996L350.854 117.892V39.6821Z" stroke="#FFE7A3"/>
<path d="M350.177 275.028L417.909 235.924L485.64 275.028V353.238L417.909 392.343L350.177 353.238V275.028Z" stroke="#FFE7A3"/>
<path d="M214.245 275.028L281.976 235.924L349.707 275.028V353.238L281.976 392.343L214.245 353.238V275.028Z" stroke="#FFE7A3"/>
<path d="M78.3118 275.028L146.043 235.924L213.775 275.028V353.238L146.043 392.343L78.3118 353.238V275.028Z" stroke="#FFE7A3"/>
<path d="M78.9881 39.6821L146.72 0.57735L214.451 39.6821V117.892L146.72 156.996L78.9881 117.892V39.6821Z" stroke="#FFE7A3"/>
<path d="M-56.9446 39.6821L10.7869 0.57735L78.5183 39.6821V117.892L10.7869 156.996L-56.9446 117.892V39.6821Z" stroke="#FFE7A3"/>
<path d="M-56.9446 275.028L10.7869 235.924L78.5183 275.028V353.238L10.7869 392.343L-56.9446 353.238V275.028Z" stroke="#FFE7A3"/>
<path d="M11.3599 392.701L79.0913 353.597L146.823 392.701V470.911L79.0913 510.016L11.3599 470.911V392.701Z" stroke="#FFE7A3"/>
</g>
<defs>
<filter id="filter0_f" x="-61.4446" y="-4" width="619.889" height="518.593" filterUnits="userSpaceOnUse" color-interpolation-filters="sRGB">
<feFlood flood-opacity="0" result="BackgroundImageFix"/>
<feBlend mode="normal" in="SourceGraphic" in2="BackgroundImageFix" result="shape"/>
<feGaussianBlur stdDeviation="2" result="effect1_foregroundBlur"/>
</filter>
</defs>
</svg>
