<svg width="32" height="22" viewBox="0 0 32 22" fill="none" xmlns="http://www.w3.org/2000/svg">
<path d="M9.99997 7.49999C9.99997 9.43299 8.43297 11 6.49997 11C4.56697 11 2.99997 9.43299 2.99997 7.49999C2.99997 5.567 4.56697 3.99999 6.49997 3.99999C8.43297 3.99999 9.99997 5.567 9.99997 7.49999Z" fill="white"/>
<path d="M6.87791 12.4112C6.00893 13.278 5.47131 14.4763 5.47131 15.8001V19.4113H0V16.2422C0 14.1264 1.71678 12.4112 3.83454 12.4112H6.87791Z" fill="white"/>
<path d="M22 7.59818C22 9.5854 23.6109 11.1964 25.5982 11.1964C27.5854 11.1964 29.1964 9.5854 29.1964 7.59818C29.1964 5.61095 27.5854 3.99999 25.5982 3.99999C23.6109 3.99999 22 5.61095 22 7.59818Z" fill="white"/>
<path d="M25.0936 12.4112C25.9626 13.278 26.5001 14.4763 26.5001 15.8V19.4113H31.9999V16.2422C31.9999 14.1264 30.2831 12.4112 28.1653 12.4112H25.0936Z" fill="white"/>
<path d="M11.7932 11C9.14601 11 7.00003 13.144 7.00003 15.7887V21.0656H25V15.7887C25 13.144 22.8541 11 20.2069 11H11.7932Z" fill="white"/>
<path d="M21.0001 5C21.0001 7.76142 18.7615 9.99999 16.0001 9.99999C13.2387 9.99999 11.0001 7.76142 11.0001 5C11.0001 4.65754 11.0345 4.32313 11.1001 4.00002H14.0631C14.2852 4.86261 15.0682 5.49997 16.0001 5.49997C16.932 5.49997 17.715 4.86261 17.9371 4.00002H20.9001C20.9657 4.32313 21.0001 4.65754 21.0001 5Z" fill="white"/>
<path d="M20.5841 3.00002C19.8125 1.23411 18.0504 0 16.0001 0C13.9498 0 12.1877 1.23411 11.4161 3.00002H14.0631C14.2851 2.13739 15.0682 1.49997 16.0001 1.49997C16.932 1.49997 17.7151 2.13739 17.9371 3.00002H20.5841Z" fill="white"/>
</svg>
