<svg width="62" height="41" viewBox="0 0 62 41" fill="none" xmlns="http://www.w3.org/2000/svg">
<path d="M19.3749 14.2857C19.3749 17.9676 16.3389 20.9524 12.5937 20.9524C8.84851 20.9524 5.81244 17.9676 5.81244 14.2857C5.81244 10.6038 8.84851 7.61904 12.5937 7.61904C16.3389 7.61904 19.3749 10.6038 19.3749 14.2857Z" fill="#00598B"/>
<path d="M13.326 23.6404C11.6423 25.2915 10.6007 27.5739 10.6007 30.0954V36.9738H0V30.9375C0 26.9074 3.32626 23.6404 7.42942 23.6404H13.326Z" fill="#00598B"/>
<path d="M42.625 14.4727C42.625 18.2579 45.7462 21.3264 49.5965 21.3264C53.4467 21.3264 56.5679 18.2579 56.5679 14.4727C56.5679 10.6875 53.4467 7.61904 49.5965 7.61904C45.7462 7.61904 42.625 10.6875 42.625 14.4727Z" fill="#00598B"/>
<path d="M48.6189 23.6404C50.3025 25.2915 51.344 27.5739 51.344 30.0952V36.9738H61.9998V30.9375C61.9998 26.9074 58.6735 23.6404 54.5704 23.6404H48.6189Z" fill="#00598B"/>
<path d="M22.8493 20.9524C17.7204 20.9524 13.5626 25.0361 13.5626 30.0737V40.125H48.4376V30.0737C48.4376 25.0361 44.2797 20.9524 39.1508 20.9524H22.8493Z" fill="#00598B"/>
<path d="M40.6877 9.5238C40.6877 14.7837 36.3504 19.0476 31.0002 19.0476C25.6499 19.0476 21.3127 14.7837 21.3127 9.5238C21.3127 8.87151 21.3794 8.23452 21.5064 7.61909H27.2473C27.6775 9.26211 29.1946 10.4761 31.0002 10.4761C32.8057 10.4761 34.3229 9.26211 34.7531 7.61909H40.4939C40.621 8.23452 40.6877 8.87151 40.6877 9.5238Z" fill="#00598B"/>
<path d="M39.8816 5.71433C38.3867 2.35068 34.9727 0 31.0002 0C27.0277 0 23.6136 2.35068 22.1187 5.71433H27.2472C27.6774 4.07121 29.1946 2.85709 31.0002 2.85709C32.8058 2.85709 34.323 4.07121 34.7531 5.71433H39.8816Z" fill="#00598B"/>
</svg>
