<svg width="62" height="40" viewBox="0 0 62 40" fill="none" xmlns="http://www.w3.org/2000/svg">
<path d="M26.1849 7.52992L19.7052 13.7535C18.4539 14.9552 18.4539 16.9037 19.7052 18.1055C20.9564 19.3073 22.9851 19.3073 24.2364 18.1055L30.7994 11.802L44.8305 25.2783C45.6772 26.0915 45.6772 27.41 44.8305 28.2232C43.9837 29.0365 42.611 29.0365 41.7642 28.2232L36.4759 23.144C36.2643 22.9408 35.9213 22.9408 35.7097 23.144C35.4981 23.3472 35.4981 23.6767 35.7097 23.8799L41.0413 29.0007C41.8881 29.8139 41.8881 31.1324 41.0413 31.9457C40.1946 32.7589 38.8218 32.7589 37.9751 31.9457L32.6438 26.8252C32.432 26.6218 32.0888 26.6218 31.877 26.8252C31.6653 27.0285 31.6653 27.3582 31.877 27.5616L37.251 32.7231C38.0978 33.5363 38.0978 34.8548 37.251 35.668C36.4043 36.4813 35.0315 36.4813 34.1848 35.668L28.8106 30.5064C28.599 30.3031 28.2559 30.3031 28.0443 30.5064C27.8326 30.7096 27.8326 31.0392 28.0443 31.2424L33.4611 36.4451C34.3078 37.2583 34.3078 38.5768 33.4611 39.3901C32.6144 40.2033 31.2416 40.2033 30.3949 39.3901L24.595 33.8196C24.5949 33.8196 24.5944 33.8196 24.5943 33.8196L12.3968 22.1044C10.9786 20.7422 10.8144 18.6317 11.9042 17.0962L5 10.465L14.7097 1.13924L21.592 7.74932C22.9385 6.77647 24.7661 6.70334 26.1849 7.52992Z" fill="#00598B"/>
<path d="M44.4048 0L54.1146 9.32576L47.0926 16.0701C47.9793 17.5746 47.7552 19.5194 46.4205 20.8014L44.1037 23.0265L39.7788 18.8726L27.7633 7.33173C29.8999 5.90222 34.0974 6.10756 36.9839 7.12747L44.4048 0Z" fill="#00598B"/>
<path d="M25.2951 36.0467L27.9211 38.5688L27.8211 38.6649C27.096 39.3614 25.9203 39.3614 25.1951 38.6649C24.47 37.9684 24.47 36.8392 25.1951 36.1428L25.2951 36.0467Z" fill="#00598B"/>
<path d="M24.6387 35.4162L24.5793 35.4733C23.8541 36.1698 22.6784 36.1698 21.9533 35.4733C21.2282 34.7769 21.2282 33.6477 21.9533 32.9512L22.0126 32.8943L24.6387 35.4162Z" fill="#00598B"/>
<path d="M18.7305 29.7419L21.3564 32.2641L21.3378 32.2819C20.6127 32.9784 19.437 32.9784 18.7118 32.2819C17.9867 31.5855 17.9867 30.4563 18.7118 29.7598L18.7305 29.7419Z" fill="#00598B"/>
<path d="M15.4692 29.0906C16.1872 29.7802 17.3468 29.787 18.0736 29.111L15.4479 26.5892C14.7441 27.2872 14.7512 28.401 15.4692 29.0906Z" fill="#00598B"/>
<path d="M28.9413 6.90859C28.3878 6.93953 27.8573 7.16317 27.4559 7.54872L20.4404 14.2867C19.5467 15.1452 19.5467 16.5369 20.4404 17.3953C21.3342 18.2537 22.7832 18.2537 23.677 17.3953L30.6924 10.6573C31.1197 10.247 31.3326 9.74008 31.3613 9.23292L28.9413 6.90859Z" fill="#00598B"/>
</svg>
